<!DOCTYPE svg PUBLIC "-//W3C//DTD SVG 1.1//EN" "http://www.w3.org/Graphics/SVG/1.1/DTD/svg11.dtd">
<!-- Uploaded to: SVG Repo, www.svgrepo.com, Transformed by: SVG Repo Mixer Tools -->
<svg fill="#ffffff" height="800px" width="800px" version="1.1" id="Layer_1" xmlns="http://www.w3.org/2000/svg" xmlns:xlink="http://www.w3.org/1999/xlink" viewBox="0 0 512 512" xml:space="preserve" stroke="#ffffff">
<g id="SVGRepo_bgCarrier" stroke-width="0"/>
<g id="SVGRepo_tracerCarrier" stroke-linecap="round" stroke-linejoin="round"/>
<g id="SVGRepo_iconCarrier"> <g> <g> <path d="M446.829,0H65.17c-9.322,0-16.879,7.557-16.879,16.879v478.242c0,9.322,7.557,16.879,16.879,16.879H446.83 c9.322,0,16.879-7.557,16.879-16.879V16.879C463.708,7.557,456.152,0,446.829,0z M429.95,478.242h-68.402l68.402-68.402V478.242z M338.157,453.893v-67.444h67.445L338.157,453.893z M429.951,352.69H321.279c-9.322,0-16.879,7.557-16.879,16.879v108.672H82.049 V33.758h347.902V352.69z"/> </g> </g> <g> <g> <path d="M248.655,415.226H126.181c-9.322,0-16.879,7.557-16.879,16.879s7.557,16.879,16.879,16.879h122.474 c9.322,0,16.879-7.557,16.879-16.879S257.977,415.226,248.655,415.226z"/> </g> </g> <g> <g> <path d="M382.602,51.763H129.398c-9.322,0-16.879,7.557-16.879,16.879v240.809c0,9.322,7.556,16.879,16.879,16.879h253.204 c9.322,0,16.879-7.557,16.879-16.879V68.642C399.481,59.32,391.924,51.763,382.602,51.763z M146.277,85.521h92.843v46.511h-92.843 V85.521z M146.277,165.79h219.444v46.512H146.277V165.79z M365.723,292.571H146.277V246.06h219.445V292.571z M365.723,132.032 h-0.001h-92.843V85.521h92.844V132.032z"/> </g> </g> </g>
</svg>